PathFileType	4	(X/Y/Z)	C:/Users/beibeiliu/ov580/test_trc\sequence.21_training_dense_right.trc
DataRate	CameraRate	NumFrames	NumMarkers	Units	OrigDataRate	OrigDataStartFrame	OrigNumFrames
120	120	16	19	mm	120	35	69
Frame#	Time	ThumbCMC			ThumbMCP			ThumbIP			ThumbTip			IndexMCP			IndexPIP			IndexTip			MiddleMCP			MiddlePIP			MiddleTip			RingMCP			RingPIP			RingTip			PinkyMCP			PinkyPIP			PinkyTip			BackHand1			BackHand2			BackHand3	
		X0	Y0	Z0	X1	Y1	Z1	X2	Y2	Z2	X3	Y3	Z3	X4	Y4	Z4	X5	Y5	Z5	X6	Y6	Z6	X7	Y7	Z7	X8	Y8	Z8	X9	Y9	Z9	X10	Y10	Z10	X11	Y11	Z11	X12	Y12	Z12	X13	Y13	Z13	X14	Y14	Z14	X15	Y15	Z15	X16	Y16	Z16	X17	Y17	Z17	X18	Y18	Z18	
34	0.283333	170.157	43.1165	129.393	152.054	65.4817	110.678	137.862	69.8513	93.0086	119.384	67.3931	69.4561	157.082	20.9754	61.5238	134.719	40.0993	44.7953	111.976	51.2911	57.9399	152.356	-2.97321	58.0775	137.468	-3.3545	36.354	114.34	2.95006	13.2172	139.179	-18.868	69.5904	125.497	-23.2861	49.075	108.764	-18.8778	22.3809	120.68	-27.3816	87.8796	104.923	-33.4392	73.0803	94.1007	-42.1593	54.0713	156.244	-18.5176	120.388	164.885	-15.5389	147.369	180.37	6.97896	122.717	
35	0.291667	188.564	28.9115	131.085	174.732	50.8219	103.466	165.031	60.0906	82.3242	148.518	52.6545	63.1675	182.458	3.89027	58.038	162.709	16.7974	43.2141	143.283	39.9311	48.0186	170.074	-24.9652	59.8827	158.764	-24.7182	35.0626	141.102	-19.7796	11.4792	151.976	-35.7578	74.0703	144.246	-38.8759	45.5129	128.288	-37.9787	20.6448	132.19	-37.8826	85.6864	120.474	-40.5552	72.8652	106.182	-51.0032	52.7537	168.584	-29.7677	121.984	170.463	-25.7139	153.127	191.532	-11.8778	128.376	
36	0.3	201.232	22.0401	130.332	188.581	41.3106	107.086	181.547	47.6752	76.3528	169.034	41.9628	57.6698	202.848	-11.4808	65.809	190.844	5.31288	44.0978	167.374	24.0315	45.8233	196.649	-35.8743	66.9523	187.759	-39.5148	41.9409	178.301	-35.4566	10.6234	175.685	-46.1554	78.2696	169.605	-53.3112	49.1482	161.873	-53.022	22.7271	150.986	-46.8634	91.6348	139.707	-56.9582	68.8579	135.269	-65.74	54.4135	180.372	-35.3057	127.068	181.067	-31.0157	152.969	204.605	-16.9502	138.614	
37	0.308333	206.766	25.6357	138.055	195.746	43.7899	108.5	190.273	46.8627	76.6495	180.826	36.7261	56.6035	224.842	-6.63829	74.5082	211.617	4.02472	50.1144	189.846	26.1332	44.5552	221.086	-35.3344	74.5362	216.968	-40.3671	47.0957	210.572	-38.5742	16.3472	202.717	-47.673	83.0629	202.657	-55.3566	53.0795	200.995	-56.3419	28.5433	176.453	-52.7288	90.5921	172.226	-62.9555	69.0444	171.835	-74.6944	49.9088	198.041	-36.4838	132.867	192.109	-32.8452	157.01	218.901	-13.7055	140.143	
38	0.316667	205.073	36.4876	140.409	191.495	48.6563	108.931	188.106	50.2129	77.9369	182.762	39.617	58.5106	237.508	11.3554	75.9767	223.966	21.588	52.6196	195.436	31.3434	46.9821	239.846	-20.1745	81.0232	244.515	-20.9951	53.4027	242.852	-20.8533	21.0192	229.426	-34.631	83.4179	232.025	-43.6687	61.551	235.414	-43.8263	33.335	204.002	-45.8398	93.5853	203.513	-57.1263	75.1124	210.028	-68.4834	55.3123	212.856	-25.2003	134.635	205.86	-21.5715	158.822	227.261	0.064162	146.188	
39	0.325	196.024	47.7444	138.206	183.318	50.1987	102.866	180.597	48.34	76.6571	178.082	39.0434	57.0083	237.995	29.9546	83.0715	225.451	35.3822	54.3828	194.449	37.014	45.4122	250.073	1.37983	81.2592	253.632	-3.68006	52.8334	252.306	-5.83298	23.1703	240.157	-22.2628	84.6723	247.739	-26.1404	62.1188	252.679	-28.648	34.8038	221.855	-34.3918	93.9476	225.829	-48.1231	75.091	235.072	-59.8358	56.1649	220.366	-16.5304	135.106	207.677	-13.9805	161.819	227.152	16.5271	147.182	
40	0.333333	181.201	51.1869	132.204	166.089	50.1082	101.807	163.356	48.8615	74.0112	168.607	35.1269	53.3243	226.485	42.1109	78.8187	212.376	38.2172	51.0933	179.72	31.3447	43.5641	242.613	13.1949	81.941	247.875	12.9118	55.9442	249.882	8.34543	23.9385	236.927	-8.82224	88.1308	248.187	-11.8161	63.3561	255.314	-17.5741	39.2425	224.495	-28.5847	95.7666	232.623	-38.8808	76.921	244.973	-49.3204	61.3635	219.261	-1.73056	134.186	207.8	-2.72772	161.343	214.209	26.6532	144.837	
41	0.341667	157.44	44.0105	128.161	141.086	39.6065	99.0553	143.777	33.1004	70.039	150.916	19.9863	47.9996	202.358	47.5177	71.9246	190.719	36.11	44.4917	165.959	19.9368	39.2239	227.775	26.3464	75.1271	234.12	18.9541	50.587	236.707	11.2799	20.3694	231.614	2.31317	84.5741	240.743	0.166194	64.8539	250.972	-8.20597	36.4944	222.462	-19.5538	99.0539	235.633	-26.8758	76.8638	248.872	-37.864	65.7859	210.865	7.82913	135.361	198.834	6.4336	156.709	194.331	38.2258	140.492	
42	0.35	136.132	30.8016	123.904	121.569	18.785	97.6966	122.527	10.9652	67.5095	133.353	-1.46566	46.3612	178.1	35.977	62.7588	170.014	22.1306	40.8375	150.679	-2.44047	39.0527	207.118	23.8215	69.927	213.487	18.0314	48.4826	218.168	9.59921	18.5482	213.429	8.43489	81.8202	227.273	2.45006	60.2277	235.388	-1.82347	37.9004	215.505	-16.1209	98.9281	227.675	-23.93	83.3209	245.733	-30.5684	67.0685	196.063	13.3007	131.814	187.305	11.1045	154.78	173.357	37.2293	131.4	
43	0.358333	116.791	20.4207	123.296	108.064	2.95845	98.6687	107.609	-6.51241	72.4257	118.373	-17.7133	53.6124	158.001	26.4085	64.0337	146.978	7.32523	36.1288	134.671	-18.1978	39.1537	183.953	19.2045	69.3392	191.207	14.4958	41.0973	196.938	4.01784	16.1365	197.931	5.59797	80.312	210.683	-0.581976	54.4722	221.478	-9.3492	35.0024	205.963	-16.4028	96.0793	215.478	-23.1884	79.1551	233.744	-30.2408	66.1526	181.033	13.0952	128.557	174.538	13.368	152.662	156.583	30.3175	132.225	
44	0.366667	108.078	10.6932	123.459	95.2234	-6.05712	102.623	94.1735	-17.1481	76.8977	104.667	-29.0297	56.1749	138.98	19.762	58.0541	131.006	1.28379	37.7424	122.605	-31.0719	43.4476	167.625	15.0184	63.8349	176.431	6.1462	38.6956	179.599	-4.3911	12.1307	184.885	0.959433	74.0009	195.018	-4.27245	50.8021	204.325	-13.5408	30.6452	189.859	-16.861	91.623	204.494	-27.6727	76.2016	218.791	-30.5912	60.5643	171.459	11.8568	122.952	161.87	10.1453	154.287	140.791	27.8764	130.695	
45	0.375	97.9817	8.64431	126.665	84.0486	-9.97358	103.146	80.3039	-21.4349	77.8562	91.2106	-34.9428	56.8521	127.603	15.766	62.9962	115.585	-3.65588	39.6382	105.348	-35.4947	46.3529	153.659	12.7643	63.2881	158.656	4.77458	38.7239	163.421	-11.7938	11.2623	168.685	-0.753102	75.5374	180.168	-8.41689	48.8645	187.9	-16.9042	26.4283	182.453	-20.6888	90.3354	188.476	-28.5662	75.1726	208.946	-37.2678	60.1838	158.09	10.4185	123.002	156.975	10.6285	154.448	130.062	28.1958	126.862	
46	0.383333	90.4682	9.02965	130.382	78.1197	-10.7474	110.034	71.9586	-25.1869	82.6508	80.2656	-37.1033	67.7034	114.94	11.8203	63.8613	107.163	-10.0906	42.9897	94.3744	-41.0685	52.7793	144.925	4.62541	64.1055	146.627	-5.12509	36.6155	147.011	-22.2255	12.2865	159.076	-7.29799	74.4242	166.532	-17.0703	47.4725	170.57	-28.0049	23.9531	173.953	-28.6	88.9291	180.56	-40.9985	70.5717	189.423	-45.7362	53.5118	157.573	2.28239	120.01	155.011	7.63222	149.209	130.144	23.6273	128.788	
47	0.391667	96.7516	16.7097	136.617	73.4158	1.38637	113.6	64.0108	-9.63231	90.2076	73.5928	-26.2311	70.7687	113.716	15.6119	66.7557	101.236	-6.76662	45.0241	80.6396	-27.9919	52.7875	142.53	-1.27521	62.9006	137.876	-11.7558	34.7163	129.866	-26.4034	10.4499	153.425	-15.0262	74.3586	156.942	-28.5332	46.5073	153.836	-37.6976	25.0944	161.111	-35.5153	88.0569	162.136	-45.276	69.0522	171.273	-54.8876	50.9826	157.514	-1.21257	123.198	154.373	5.45594	152.569	133.72	25.0595	132.937	
48	0.4	103.051	32.373	137.499	77.3434	22.9639	117.537	66.836	11.661	91.0268	67.5394	-3.22256	74.8007	119.747	22.0071	62.858	100.595	12.7472	47.0079	79.1921	-10.3025	53.2777	142.83	1.84936	63.1935	134.51	-5.25525	37.7557	121.612	-19.2112	13.3518	150.328	-12.223	72.1374	149.16	-24.6996	50.0029	141.45	-39.155	21.8709	152.809	-34.9885	89.7007	153.483	-49.1869	70.8463	155.382	-56.3646	49.8529	157.891	-2.10214	125.179	159.965	2.5787	150.573	143.274	29.4482	132.644	
49	0.408333	112.878	38.1231	139.121	85.8251	32.7506	116.186	71.6266	27.5814	97.0754	70.7252	11.8997	75.0033	126.895	30.6509	69.7504	102.276	20.242	49.9922	77.069	4.41481	55.7848	144.636	12.9347	67.9557	135.884	-0.932924	37.6295	120.89	-8.38419	17.119	151.791	-10.4705	72.106	146.604	-15.158	48.6602	136.892	-26.8716	21.7475	150.027	-26.8662	88.352	147.271	-41.7679	68.1861	148.652	-47.8788	47.5721	161.258	-0.318575	123.364	160.805	4.05562	151.284	152.216	31.9645	135.587	
